<svg width="157" height="45" viewBox="0 0 157 45" fill="none" xmlns="http://www.w3.org/2000/svg">
<path fill-rule="evenodd" clip-rule="evenodd" d="M0.641911 13.8363L14.7854 27.7046L7.9704 34.6335C17.9521 34.6335 14.5286 34.6335 19.8458 34.6335L26.6607 27.7046L12.5173 13.8363L20.3058 5.88256L15.9301 1.58007C14.8816 0.715303 13.8118 0.629893 12.7312 1.55872L0.641911 13.8363ZM59.5266 44.274L59.794 41.5196C59.794 41.4662 59.8047 41.4235 59.8154 41.3808C59.8154 41.3274 59.8261 41.2847 59.8261 41.242H59.8154C59.794 41.2847 59.7726 41.3274 59.7512 41.3701C59.7191 41.4021 59.6977 41.4448 59.6656 41.4982L59.5693 41.637L57.665 44.274H57.2585L57.6008 40.6762H57.9967L57.7506 43.2064C57.7506 43.2598 57.7399 43.3132 57.7399 43.3666C57.7292 43.4199 57.7292 43.4733 57.7185 43.516C57.7078 43.5694 57.7078 43.6121 57.6971 43.6548H57.7078C57.7399 43.6121 57.7613 43.5694 57.7934 43.5267C57.8148 43.4947 57.8362 43.452 57.8683 43.4093C57.9004 43.3559 57.9325 43.3132 57.9646 43.2705L59.8368 40.6762H60.2648L59.9224 44.274H59.5266ZM62.6719 44.274L62.8324 42.6085H61.3025L61.142 44.274H60.7034L61.0457 40.6762H61.4844L61.3346 42.2456H62.8645L63.0143 40.6762H63.4529L63.1106 44.274H62.6719ZM65.8601 44.274L66.0206 42.6085H64.4907L64.3302 44.274H63.8915L64.2339 40.6762H64.6725L64.5228 42.2456H66.0527L66.2024 40.6762H66.6411L66.2987 44.274H65.8601ZM69.9041 42.4698C69.8827 42.726 69.8292 42.9715 69.7543 43.1957C69.6687 43.4199 69.5725 43.6228 69.4334 43.7829C69.305 43.9537 69.1552 44.0819 68.9626 44.1886C68.7808 44.2847 68.5775 44.3274 68.3528 44.3274C68.1175 44.3274 67.9249 44.2847 67.7644 44.1886C67.5932 44.0819 67.4649 43.9537 67.3686 43.7829C67.2723 43.6228 67.1974 43.4199 67.1653 43.1957C67.1225 42.9715 67.1225 42.726 67.1439 42.4698C67.1653 42.2135 67.2188 41.9786 67.3044 41.7544C67.3793 41.5303 67.4863 41.3274 67.6146 41.1673C67.743 40.9964 67.9035 40.8577 68.0854 40.7616C68.2672 40.6655 68.4705 40.6121 68.7059 40.6121C68.9305 40.6121 69.1338 40.6655 69.2943 40.7616C69.4548 40.8577 69.5832 40.9964 69.6901 41.1673C69.7864 41.3274 69.8506 41.5303 69.8934 41.7544C69.9255 41.9786 69.9362 42.2135 69.9041 42.4698ZM69.4762 42.4698C69.4976 42.2669 69.4976 42.0747 69.4762 41.8932C69.4548 41.7117 69.412 41.5623 69.3371 41.4235C69.2729 41.2954 69.1873 41.1886 69.0696 41.1139C68.9626 41.0391 68.8236 40.9964 68.6631 40.9964C68.5133 40.9964 68.3742 41.0391 68.2458 41.1139C68.1175 41.1886 68.0105 41.2954 67.9142 41.4235C67.8179 41.5623 67.743 41.7117 67.6895 41.8932C67.636 42.0747 67.5932 42.2669 67.5718 42.4698C67.5504 42.6833 67.5504 42.8754 67.5825 43.0569C67.6039 43.2384 67.6467 43.3879 67.7109 43.5267C67.7858 43.6548 67.8714 43.7616 67.9784 43.8363C68.0961 43.911 68.2351 43.9431 68.3849 43.9431C68.5454 43.9431 68.6845 43.911 68.8129 43.8363C68.9412 43.7616 69.0482 43.6548 69.1445 43.5267C69.2301 43.3879 69.305 43.2384 69.3692 43.0569C69.4227 42.8754 69.4548 42.6833 69.4762 42.4698ZM72.8783 43.3238C72.8569 43.6335 72.7071 43.879 72.4611 44.0605C72.2043 44.242 71.8619 44.3274 71.4233 44.3274C71.3377 44.3274 71.2414 44.3274 71.1451 44.3167C71.0489 44.306 70.9633 44.2954 70.8777 44.274C70.7921 44.2633 70.7065 44.242 70.6316 44.2206C70.5567 44.1886 70.4925 44.1673 70.439 44.1459L70.76 40.8043C70.8777 40.7509 71.0382 40.7082 71.2093 40.6655C71.3912 40.6335 71.5731 40.6121 71.7657 40.6121C72.1722 40.6121 72.4825 40.7082 72.675 40.879C72.8676 41.0498 72.9532 41.274 72.9211 41.5623C72.9104 41.669 72.889 41.7758 72.8355 41.8719C72.7927 41.968 72.7392 42.0534 72.675 42.1281C72.6001 42.1922 72.5359 42.2562 72.4504 42.2989C72.3755 42.3416 72.3006 42.3737 72.2364 42.395H72.2257C72.3113 42.4164 72.3862 42.4484 72.4611 42.4911C72.5466 42.5338 72.6215 42.5979 72.6857 42.6726C72.7606 42.7473 72.8034 42.8327 72.8462 42.9395C72.8783 43.0569 72.8997 43.1744 72.8783 43.3238ZM72.5039 41.5836C72.5253 41.3915 72.4718 41.2313 72.3327 41.1246C72.2043 41.0071 72.001 40.9537 71.7336 40.9537C71.6159 40.9537 71.5089 40.9644 71.4019 40.9858C71.2949 40.9964 71.2093 41.0178 71.1451 41.0498L71.0275 42.2669H71.5517C71.6373 42.2669 71.7122 42.2669 71.7764 42.2562C71.8405 42.2562 71.9047 42.2456 71.9475 42.2349C72.001 42.2242 72.0545 42.2028 72.0866 42.1922C72.1294 42.1708 72.1722 42.1495 72.215 42.1174C72.3006 42.0641 72.3648 41.9893 72.4183 41.8932C72.4611 41.8078 72.4932 41.7011 72.5039 41.5836ZM72.4504 43.3025C72.4825 43.0249 72.3862 42.8327 72.1722 42.7046C72.1401 42.6833 72.0973 42.6619 72.0545 42.6512C72.0117 42.6406 71.9689 42.6192 71.9261 42.6085C71.8726 42.6085 71.8192 42.5979 71.7657 42.5872C71.7015 42.5872 71.6266 42.5872 71.541 42.5872H70.9954L70.867 43.9004C70.9419 43.9324 71.0275 43.9537 71.1344 43.9644C71.2414 43.9858 71.3484 43.9964 71.4554 43.9964C71.755 43.9964 71.9903 43.9324 72.1615 43.8149C72.3327 43.6975 72.429 43.5267 72.4504 43.3025ZM75.7776 44.274L75.5101 43.2278H74.0658L73.6058 44.274H73.1458L74.7826 40.6762H75.2748L76.2269 44.274H75.7776ZM75.0715 41.4342C75.0608 41.3915 75.0501 41.3488 75.0394 41.2954C75.0287 41.242 75.0287 41.1993 75.018 41.1566C75.0073 41.1139 75.0073 41.0712 74.9966 41.0285C74.9859 41.0712 74.9645 41.1139 74.9431 41.1566C74.9217 41.242 74.8896 41.3381 74.8468 41.4342L74.1942 42.8968H75.4352L75.0715 41.4342ZM79.2118 45H78.8909L78.9444 44.274H76.7191L77.0614 40.6762H77.5001L77.1898 43.911H78.6876L78.9979 40.6762H79.4258L79.1155 43.911L79.3295 43.9964L79.2118 45ZM82.2395 44.274L82.4963 41.5196C82.507 41.4662 82.507 41.4235 82.5177 41.3808C82.5177 41.3274 82.5284 41.2847 82.5391 41.242H82.5284C82.507 41.2847 82.4749 41.3274 82.4535 41.3701C82.4321 41.4021 82.4 41.4448 82.3679 41.4982L82.2823 41.637L80.3673 44.274H79.9607L80.3138 40.6762H80.6989L80.4636 43.2064C80.4529 43.2598 80.4529 43.3132 80.4422 43.3666C80.4315 43.4199 80.4315 43.4733 80.4315 43.516C80.4208 43.5694 80.4101 43.6121 80.4101 43.6548H80.4208C80.4422 43.6121 80.4636 43.5694 80.4957 43.5267C80.517 43.4947 80.5491 43.452 80.5705 43.4093C80.6026 43.3559 80.6347 43.3132 80.6668 43.2705L82.5391 40.6762H82.967L82.6246 44.274H82.2395ZM85.6844 44.274L85.9412 41.5196C85.9519 41.4662 85.9519 41.4235 85.9626 41.3808C85.9733 41.3274 85.9733 41.2847 85.984 41.242H85.9733C85.9519 41.2847 85.9305 41.3274 85.8984 41.3701C85.877 41.4021 85.8449 41.4448 85.8128 41.4982L85.7272 41.637L83.8122 44.274H83.4163L83.7587 40.6762H84.1545L83.9085 43.2064C83.9085 43.2598 83.8978 43.3132 83.8871 43.3666C83.8871 43.4199 83.8764 43.4733 83.8764 43.516C83.8657 43.5694 83.855 43.6121 83.855 43.6548H83.8657C83.8871 43.6121 83.9192 43.5694 83.9406 43.5267C83.962 43.4947 83.9941 43.452 84.0262 43.4093C84.0476 43.3559 84.0797 43.3132 84.1224 43.2705L85.9947 40.6762H86.4119L86.0696 44.274H85.6844ZM87.4069 44.0178C87.3962 44.1032 87.3641 44.1673 87.2999 44.2313C87.2464 44.2847 87.1715 44.306 87.0859 44.306C87.011 44.306 86.9469 44.2847 86.8934 44.2313C86.8399 44.1673 86.8185 44.1032 86.8292 44.0178C86.8399 43.9431 86.872 43.879 86.9362 43.8149C87.0003 43.7616 87.0645 43.7295 87.1501 43.7295C87.225 43.7295 87.2892 43.7616 87.3427 43.8149C87.3962 43.879 87.4176 43.9431 87.4069 44.0178ZM91.4402 44.274L90.9588 43.1423C90.8946 42.9715 90.7769 42.8221 90.6271 42.7153C90.4774 42.5979 90.2955 42.5338 90.0708 42.5338L89.9103 44.274H89.4824L89.8248 40.6762H90.2527L90.0922 42.3523H90.1029L91.6863 40.6762H92.2105L90.5844 42.331C90.9588 42.4377 91.2263 42.6833 91.3974 43.0676L91.9324 44.274H91.4402ZM94.7568 44.274L94.4893 43.2278H93.0557L92.585 44.274H92.1356L93.7725 40.6762H94.2646L95.2061 44.274H94.7568ZM94.0507 41.4342C94.04 41.3915 94.0293 41.3488 94.0293 41.2954C94.0186 41.242 94.0079 41.1993 94.0079 41.1566C93.9972 41.1139 93.9865 41.0712 93.9865 41.0285H93.9758C93.9651 41.0712 93.9544 41.1139 93.933 41.1566C93.9009 41.242 93.8688 41.3381 93.826 41.4342L93.1841 42.8968H94.4251L94.0507 41.4342ZM97.2174 44.274L97.3565 42.79C97.3137 42.8114 97.2602 42.8327 97.196 42.8541C97.1318 42.8754 97.0676 42.8861 96.9928 42.9075C96.9286 42.9182 96.8537 42.9288 96.7895 42.9395C96.7146 42.9502 96.6504 42.9502 96.5969 42.9502C96.415 42.9502 96.2653 42.9288 96.1262 42.8754C95.9871 42.8221 95.8801 42.7473 95.7838 42.6512C95.6982 42.5552 95.634 42.4377 95.5913 42.2989C95.5592 42.1601 95.5485 42 95.5592 41.8292L95.6661 40.6762H96.1048L95.9978 41.8078C95.9764 42.0534 96.0192 42.2456 96.1476 42.3737C96.276 42.5125 96.4578 42.5765 96.7039 42.5765C96.7574 42.5765 96.8109 42.5658 96.8751 42.5658C96.9393 42.5552 97.0035 42.5445 97.0676 42.5338C97.1318 42.5125 97.196 42.5018 97.2495 42.4804C97.303 42.4591 97.3565 42.4377 97.3993 42.4164L97.5598 40.6762H97.9877L97.6454 44.274H97.2174ZM98.4371 44.274L98.7794 40.6762H100.652L100.62 41.0391H99.1753L99.0576 42.2456H100.395L100.352 42.6085H99.0255L98.8971 43.911H100.341L100.309 44.274H98.4371ZM102.973 44.1459C102.888 44.1993 102.781 44.242 102.642 44.274C102.503 44.3167 102.353 44.3274 102.182 44.3274C101.989 44.3274 101.818 44.2954 101.647 44.2206C101.486 44.1459 101.347 44.0285 101.24 43.879C101.122 43.7295 101.037 43.5374 100.983 43.3025C100.93 43.0676 100.919 42.79 100.951 42.4698C100.983 42.1601 101.048 41.8826 101.144 41.6477C101.24 41.4128 101.358 41.2206 101.497 41.0712C101.647 40.9217 101.807 40.8043 101.978 40.7295C102.16 40.6548 102.353 40.6121 102.545 40.6121C102.695 40.6121 102.845 40.6335 102.984 40.6655C103.112 40.7082 103.219 40.7509 103.294 40.8043L103.123 41.1566C103.059 41.1139 102.984 41.0712 102.888 41.0391C102.781 41.0071 102.674 40.9964 102.545 40.9964C102.406 40.9964 102.267 41.0285 102.149 41.0819C102.021 41.1459 101.903 41.2313 101.796 41.3488C101.7 41.4769 101.615 41.6263 101.54 41.8078C101.465 42 101.422 42.2135 101.401 42.4698C101.368 42.726 101.379 42.9395 101.411 43.121C101.454 43.3132 101.508 43.4626 101.582 43.5907C101.668 43.7082 101.764 43.7936 101.882 43.8577C102 43.9217 102.128 43.9431 102.267 43.9431C102.385 43.9431 102.503 43.9324 102.609 43.9004C102.716 43.8683 102.802 43.8363 102.866 43.7936L102.973 44.1459ZM104.985 41.0391L104.685 44.274H104.257L104.557 41.0391H103.658L103.701 40.6762H105.926L105.883 41.0391H104.985ZM108.601 43.3238C108.579 43.6335 108.429 43.879 108.183 44.0605C107.927 44.242 107.584 44.3274 107.146 44.3274C107.06 44.3274 106.964 44.3274 106.867 44.3167C106.782 44.306 106.686 44.2954 106.6 44.274C106.514 44.2633 106.429 44.242 106.354 44.2206C106.279 44.1886 106.215 44.1673 106.161 44.1459L106.482 40.8043C106.6 40.7509 106.761 40.7082 106.932 40.6655C107.114 40.6335 107.295 40.6121 107.488 40.6121C107.895 40.6121 108.205 40.7082 108.397 40.879C108.59 41.0498 108.676 41.274 108.643 41.5623C108.633 41.669 108.611 41.7758 108.558 41.8719C108.515 41.968 108.462 42.0534 108.397 42.1281C108.322 42.1922 108.258 42.2562 108.183 42.2989C108.098 42.3416 108.023 42.3737 107.959 42.395C108.034 42.4164 108.109 42.4484 108.194 42.4911C108.269 42.5338 108.344 42.5979 108.408 42.6726C108.483 42.7473 108.526 42.8327 108.569 42.9395C108.601 43.0569 108.622 43.1744 108.601 43.3238ZM108.226 41.5836C108.248 41.3915 108.194 41.2313 108.055 41.1246C107.927 41.0071 107.723 40.9537 107.456 40.9537C107.338 40.9537 107.231 40.9644 107.124 40.9858C107.017 40.9964 106.932 41.0178 106.867 41.0498L106.75 42.2669H107.274C107.36 42.2669 107.445 42.2669 107.499 42.2562C107.563 42.2562 107.627 42.2456 107.681 42.2349C107.723 42.2242 107.777 42.2028 107.82 42.1922C107.852 42.1708 107.895 42.1495 107.937 42.1174C108.023 42.0641 108.087 41.9893 108.141 41.8932C108.183 41.8078 108.216 41.7011 108.226 41.5836ZM108.173 43.3025C108.205 43.0249 108.109 42.8327 107.895 42.7046C107.862 42.6833 107.82 42.6619 107.777 42.6512C107.734 42.6406 107.691 42.6192 107.648 42.6085C107.595 42.6085 107.542 42.5979 107.488 42.5872C107.424 42.5872 107.349 42.5872 107.263 42.5872H106.718L106.589 43.9004C106.664 43.9324 106.75 43.9537 106.857 43.9644C106.964 43.9858 107.071 43.9964 107.178 43.9964C107.477 43.9964 107.713 43.9324 107.884 43.8149C108.055 43.6975 108.151 43.5267 108.173 43.3025ZM111.992 42.4698C111.971 42.726 111.917 42.9715 111.832 43.1957C111.757 43.4199 111.65 43.6228 111.521 43.7829C111.393 43.9537 111.232 44.0819 111.051 44.1886C110.869 44.2847 110.665 44.3274 110.43 44.3274C110.205 44.3274 110.013 44.2847 109.842 44.1886C109.681 44.0819 109.553 43.9537 109.446 43.7829C109.35 43.6228 109.285 43.4199 109.243 43.1957C109.21 42.9715 109.2 42.726 109.232 42.4698C109.253 42.2135 109.307 41.9786 109.382 41.7544C109.467 41.5303 109.574 41.3274 109.703 41.1673C109.831 40.9964 109.991 40.8577 110.173 40.7616C110.355 40.6655 110.558 40.6121 110.783 40.6121C111.019 40.6121 111.211 40.6655 111.382 40.7616C111.543 40.8577 111.671 40.9964 111.767 41.1673C111.874 41.3274 111.939 41.5303 111.971 41.7544C112.013 41.9786 112.013 42.2135 111.992 42.4698ZM111.564 42.4698C111.586 42.2669 111.586 42.0747 111.564 41.8932C111.532 41.7117 111.489 41.5623 111.425 41.4235C111.361 41.2954 111.265 41.1886 111.158 41.1139C111.04 41.0391 110.912 40.9964 110.751 40.9964C110.591 40.9964 110.451 41.0391 110.323 41.1139C110.195 41.1886 110.088 41.2954 110.002 41.4235C109.906 41.5623 109.831 41.7117 109.777 41.8932C109.713 42.0747 109.681 42.2669 109.66 42.4698C109.638 42.6833 109.638 42.8754 109.66 43.0569C109.681 43.2384 109.735 43.3879 109.799 43.5267C109.863 43.6548 109.959 43.7616 110.066 43.8363C110.184 43.911 110.312 43.9431 110.473 43.9431C110.623 43.9431 110.772 43.911 110.901 43.8363C111.019 43.7616 111.136 43.6548 111.222 43.5267C111.318 43.3879 111.393 43.2384 111.446 43.0569C111.511 42.8754 111.543 42.6833 111.564 42.4698ZM112.869 44.0178C112.859 44.1032 112.827 44.1673 112.762 44.2313C112.698 44.2847 112.634 44.306 112.548 44.306C112.474 44.306 112.409 44.2847 112.356 44.2313C112.302 44.1673 112.281 44.1032 112.292 44.0178C112.302 43.9431 112.334 43.879 112.399 43.8149C112.452 43.7616 112.527 43.7295 112.602 43.7295C112.687 43.7295 112.752 43.7616 112.805 43.8149C112.859 43.879 112.88 43.9431 112.869 44.0178ZM117.908 45H117.587L117.641 44.274H115.084L114.998 45H114.677L114.752 43.9964C114.934 43.8577 115.084 43.6975 115.223 43.4947C115.351 43.3025 115.469 43.089 115.555 42.8754C115.651 42.6512 115.737 42.427 115.801 42.2028C115.865 41.9893 115.908 41.7758 115.951 41.573L116.143 40.6762H117.748L117.812 43.911L118.026 43.9964L117.908 45ZM117.341 41.0391H116.485L116.357 41.6157C116.325 41.8078 116.271 42.0107 116.218 42.2242C116.154 42.4377 116.079 42.6512 115.993 42.8648C115.908 43.0676 115.811 43.2705 115.704 43.452C115.597 43.6441 115.48 43.8043 115.341 43.9324H117.384L117.341 41.0391ZM121.353 42.4698C121.332 42.726 121.278 42.9715 121.193 43.1957C121.118 43.4199 121.011 43.6228 120.883 43.7829C120.754 43.9537 120.594 44.0819 120.412 44.1886C120.23 44.2847 120.027 44.3274 119.791 44.3274C119.567 44.3274 119.363 44.2847 119.203 44.1886C119.042 44.0819 118.914 43.9537 118.807 43.7829C118.711 43.6228 118.647 43.4199 118.604 43.1957C118.572 42.9715 118.561 42.726 118.593 42.4698C118.614 42.2135 118.668 41.9786 118.743 41.7544C118.828 41.5303 118.925 41.3274 119.064 41.1673C119.192 40.9964 119.353 40.8577 119.535 40.7616C119.716 40.6655 119.92 40.6121 120.144 40.6121C120.38 40.6121 120.572 40.6655 120.733 40.7616C120.904 40.8577 121.032 40.9964 121.129 41.1673C121.225 41.3274 121.3 41.5303 121.332 41.7544C121.375 41.9786 121.375 42.2135 121.353 42.4698ZM120.925 42.4698C120.947 42.2669 120.947 42.0747 120.915 41.8932C120.893 41.7117 120.85 41.5623 120.786 41.4235C120.711 41.2954 120.626 41.1886 120.519 41.1139C120.401 41.0391 120.273 40.9964 120.112 40.9964C119.952 40.9964 119.813 41.0391 119.684 41.1139C119.556 41.1886 119.449 41.2954 119.353 41.4235C119.267 41.5623 119.192 41.7117 119.128 41.8932C119.075 42.0747 119.042 42.2669 119.021 42.4698C119 42.6833 119 42.8754 119.021 43.0569C119.042 43.2384 119.085 43.3879 119.16 43.5267C119.224 43.6548 119.31 43.7616 119.428 43.8363C119.535 43.911 119.674 43.9431 119.834 43.9431C119.984 43.9431 120.134 43.911 120.251 43.8363C120.38 43.7616 120.497 43.6548 120.583 43.5267C120.679 43.3879 120.754 43.2384 120.808 43.0569C120.861 42.8754 120.904 42.6833 120.925 42.4698ZM124.081 44.274L124.039 41.0391H123.183L123.022 41.8505C122.969 42.1174 122.905 42.363 122.84 42.6085C122.776 42.8648 122.691 43.089 122.584 43.3025C122.487 43.516 122.348 43.7189 122.188 43.8897C122.038 44.0712 121.835 44.2313 121.599 44.3594L121.482 43.9858C121.664 43.8683 121.824 43.7402 121.942 43.5801C122.07 43.4306 122.166 43.2598 122.252 43.0783C122.327 42.8968 122.391 42.694 122.445 42.4804C122.498 42.2669 122.552 42.0427 122.594 41.7972L122.83 40.6762H124.467L124.52 44.274H124.081ZM125.964 41.0391L125.654 44.274H125.226L125.569 40.6762H127.387L127.355 41.0391H125.964ZM130.287 42.4698C130.265 42.726 130.212 42.9715 130.137 43.1957C130.051 43.4199 129.944 43.6228 129.816 43.7829C129.687 43.9537 129.527 44.0819 129.345 44.1886C129.163 44.2847 128.96 44.3274 128.725 44.3274C128.5 44.3274 128.307 44.2847 128.136 44.1886C127.976 44.0819 127.847 43.9537 127.751 43.7829C127.644 43.6228 127.58 43.4199 127.548 43.1957C127.505 42.9715 127.505 42.726 127.526 42.4698C127.548 42.2135 127.601 41.9786 127.676 41.7544C127.762 41.5303 127.869 41.3274 127.997 41.1673C128.125 40.9964 128.286 40.8577 128.468 40.7616C128.65 40.6655 128.853 40.6121 129.088 40.6121C129.313 40.6121 129.506 40.6655 129.677 40.7616C129.837 40.8577 129.966 40.9964 130.062 41.1673C130.169 41.3274 130.233 41.5303 130.265 41.7544C130.308 41.9786 130.308 42.2135 130.287 42.4698ZM129.859 42.4698C129.88 42.2669 129.88 42.0747 129.859 41.8932C129.837 41.7117 129.784 41.5623 129.72 41.4235C129.655 41.2954 129.559 41.1886 129.452 41.1139C129.334 41.0391 129.206 40.9964 129.046 40.9964C128.896 40.9964 128.746 41.0391 128.618 41.1139C128.5 41.1886 128.382 41.2954 128.297 41.4235C128.2 41.5623 128.125 41.7117 128.072 41.8932C128.008 42.0747 127.976 42.2669 127.954 42.4698C127.933 42.6833 127.933 42.8754 127.954 43.0569C127.976 43.2384 128.029 43.3879 128.093 43.5267C128.158 43.6548 128.254 43.7616 128.361 43.8363C128.479 43.911 128.607 43.9431 128.767 43.9431C128.917 43.9431 129.067 43.911 129.195 43.8363C129.313 43.7616 129.431 43.6548 129.516 43.5267C129.613 43.3879 129.687 43.2384 129.741 43.0569C129.805 42.8754 129.837 42.6833 129.859 42.4698ZM133.261 43.3238C133.229 43.6335 133.09 43.879 132.833 44.0605C132.587 44.242 132.234 44.3274 131.806 44.3274C131.709 44.3274 131.624 44.3274 131.528 44.3167C131.431 44.306 131.346 44.2954 131.26 44.274C131.175 44.2633 131.089 44.242 131.014 44.2206C130.939 44.1886 130.875 44.1673 130.821 44.1459L131.132 40.8043C131.26 40.7509 131.41 40.7082 131.592 40.6655C131.774 40.6335 131.956 40.6121 132.137 40.6121C132.555 40.6121 132.854 40.7082 133.057 40.879C133.25 41.0498 133.336 41.274 133.304 41.5623C133.293 41.669 133.261 41.7758 133.218 41.8719C133.175 41.968 133.122 42.0534 133.047 42.1281C132.983 42.1922 132.908 42.2562 132.833 42.2989C132.758 42.3416 132.683 42.3737 132.608 42.395C132.683 42.4164 132.769 42.4484 132.843 42.4911C132.929 42.5338 133.004 42.5979 133.068 42.6726C133.132 42.7473 133.186 42.8327 133.229 42.9395C133.261 43.0569 133.271 43.1744 133.261 43.3238ZM132.886 41.5836C132.908 41.3915 132.854 41.2313 132.715 41.1246C132.576 41.0071 132.383 40.9537 132.105 40.9537C131.998 40.9537 131.891 40.9644 131.784 40.9858C131.677 40.9964 131.592 41.0178 131.517 41.0498L131.41 42.2669H131.934C132.02 42.2669 132.095 42.2669 132.159 42.2562C132.223 42.2562 132.276 42.2456 132.33 42.2349C132.383 42.2242 132.426 42.2028 132.469 42.1922C132.512 42.1708 132.555 42.1495 132.597 42.1174C132.672 42.0641 132.737 41.9893 132.79 41.8932C132.843 41.8078 132.876 41.7011 132.886 41.5836ZM132.833 43.3025C132.865 43.0249 132.769 42.8327 132.555 42.7046C132.512 42.6833 132.48 42.6619 132.437 42.6512C132.394 42.6406 132.351 42.6192 132.309 42.6085C132.255 42.6085 132.202 42.5979 132.137 42.5872C132.084 42.5872 132.009 42.5872 131.923 42.5872H131.378L131.249 43.9004C131.314 43.9324 131.41 43.9537 131.517 43.9644C131.624 43.9858 131.731 43.9964 131.838 43.9964C132.137 43.9964 132.373 43.9324 132.544 43.8149C132.715 43.6975 132.811 43.5267 132.833 43.3025ZM133.828 44.274L134.17 40.6762H136.042L136 41.0391H134.555L134.438 42.2456H135.775L135.743 42.6085H134.405L134.288 43.911H135.732L135.689 44.274H133.828ZM138.214 44.274L138.353 42.79C138.31 42.8114 138.246 42.8327 138.193 42.8541C138.129 42.8754 138.054 42.8861 137.989 42.9075C137.915 42.9182 137.85 42.9288 137.776 42.9395C137.711 42.9502 137.647 42.9502 137.583 42.9502C137.412 42.9502 137.251 42.9288 137.123 42.8754C136.984 42.8221 136.866 42.7473 136.781 42.6512C136.695 42.5552 136.631 42.4377 136.588 42.2989C136.545 42.1601 136.534 42 136.556 41.8292L136.663 40.6762H137.091L136.984 41.8078C136.962 42.0534 137.016 42.2456 137.144 42.3737C137.262 42.5125 137.455 42.5765 137.701 42.5765C137.743 42.5765 137.808 42.5658 137.861 42.5658C137.925 42.5552 137.989 42.5445 138.054 42.5338C138.118 42.5125 138.182 42.5018 138.236 42.4804C138.3 42.4591 138.343 42.4377 138.385 42.4164L138.557 40.6762H138.984L138.642 44.274H138.214ZM141.402 44.274L141.552 42.6085H140.022L139.862 44.274H139.434L139.776 40.6762H140.204L140.054 42.2456H141.595L141.745 40.6762H142.173L141.83 44.274H141.402ZM145.446 42.4698C145.425 42.726 145.371 42.9715 145.286 43.1957C145.211 43.4199 145.104 43.6228 144.976 43.7829C144.847 43.9537 144.687 44.0819 144.505 44.1886C144.323 44.2847 144.12 44.3274 143.884 44.3274C143.66 44.3274 143.456 44.2847 143.296 44.1886C143.135 44.0819 143.007 43.9537 142.9 43.7829C142.804 43.6228 142.74 43.4199 142.697 43.1957C142.665 42.9715 142.654 42.726 142.686 42.4698C142.708 42.2135 142.761 41.9786 142.836 41.7544C142.921 41.5303 143.018 41.3274 143.157 41.1673C143.285 40.9964 143.446 40.8577 143.628 40.7616C143.809 40.6655 144.013 40.6121 144.237 40.6121C144.473 40.6121 144.665 40.6655 144.826 40.7616C144.997 40.8577 145.125 40.9964 145.222 41.1673C145.318 41.3274 145.393 41.5303 145.425 41.7544C145.468 41.9786 145.468 42.2135 145.446 42.4698ZM145.018 42.4698C145.04 42.2669 145.04 42.0747 145.008 41.8932C144.986 41.7117 144.944 41.5623 144.879 41.4235C144.815 41.2954 144.719 41.1886 144.612 41.1139C144.494 41.0391 144.355 40.9964 144.205 40.9964C144.045 40.9964 143.906 41.0391 143.777 41.1139C143.649 41.1886 143.542 41.2954 143.446 41.4235C143.36 41.5623 143.285 41.7117 143.221 41.8932C143.168 42.0747 143.135 42.2669 143.114 42.4698C143.093 42.6833 143.093 42.8754 143.114 43.0569C143.135 43.2384 143.178 43.3879 143.253 43.5267C143.317 43.6548 143.403 43.7616 143.521 43.8363C143.628 43.911 143.767 43.9431 143.927 43.9431C144.077 43.9431 144.227 43.911 144.344 43.8363C144.473 43.7616 144.58 43.6548 144.676 43.5267C144.772 43.3879 144.847 43.2384 144.901 43.0569C144.954 42.8754 144.997 42.6833 145.018 42.4698ZM148.046 44.1459C147.95 44.1993 147.843 44.242 147.704 44.274C147.565 44.3167 147.415 44.3274 147.254 44.3274C147.062 44.3274 146.88 44.2954 146.709 44.2206C146.548 44.1459 146.409 44.0285 146.302 43.879C146.185 43.7295 146.099 43.5374 146.045 43.3025C145.992 43.0676 145.981 42.79 146.013 42.4698C146.045 42.1601 146.11 41.8826 146.206 41.6477C146.302 41.4128 146.42 41.2206 146.57 41.0712C146.709 40.9217 146.869 40.8043 147.051 40.7295C147.222 40.6548 147.415 40.6121 147.607 40.6121C147.768 40.6121 147.907 40.6335 148.046 40.6655C148.174 40.7082 148.281 40.7509 148.356 40.8043L148.185 41.1566C148.121 41.1139 148.046 41.0712 147.95 41.0391C147.843 41.0071 147.736 40.9964 147.607 40.9964C147.468 40.9964 147.329 41.0285 147.212 41.0819C147.083 41.1459 146.966 41.2313 146.859 41.3488C146.762 41.4769 146.677 41.6263 146.602 41.8078C146.527 42 146.484 42.2135 146.463 42.4698C146.431 42.726 146.441 42.9395 146.473 43.121C146.516 43.3132 146.57 43.4626 146.645 43.5907C146.73 43.7082 146.826 43.7936 146.944 43.8577C147.062 43.9217 147.19 43.9431 147.329 43.9431C147.458 43.9431 147.565 43.9324 147.672 43.9004C147.779 43.8683 147.864 43.8363 147.928 43.7936L148.046 44.1459ZM150.057 41.0391L149.747 44.274H149.319L149.619 41.0391H148.731L148.763 40.6762H150.988L150.956 41.0391H150.057ZM153.534 43.2171C153.524 43.3879 153.481 43.5374 153.406 43.6762C153.342 43.8149 153.246 43.9217 153.128 44.0285C153.01 44.1246 152.86 44.1993 152.7 44.2527C152.539 44.306 152.347 44.3274 152.144 44.3274C151.962 44.3274 151.791 44.3167 151.63 44.2847C151.47 44.2527 151.331 44.1993 151.213 44.1459L151.545 40.6762H151.972L151.823 42.1708C151.876 42.1601 151.951 42.1495 152.037 42.1281C152.133 42.1174 152.219 42.1174 152.304 42.1174C152.518 42.1174 152.7 42.1388 152.871 42.2028C153.032 42.2562 153.16 42.331 153.267 42.427C153.374 42.5231 153.449 42.6406 153.492 42.7687C153.534 42.9075 153.556 43.0569 153.534 43.2171ZM153.117 43.2171C153.139 42.9822 153.074 42.79 152.925 42.6619C152.775 42.5231 152.55 42.4591 152.261 42.4591C152.176 42.4591 152.101 42.4698 152.005 42.4804C151.919 42.4911 151.844 42.5018 151.791 42.5231L151.662 43.9004C151.716 43.9324 151.791 43.9537 151.887 43.9644C151.972 43.9751 152.069 43.9858 152.176 43.9858C152.465 43.9858 152.679 43.9217 152.839 43.7936C152.999 43.6548 153.085 43.4733 153.117 43.2171ZM55.9426 37.7082H0.641911L0 45H55.3006L55.9426 37.7082ZM139.68 29.1673C139.83 27.2135 138.942 26.2313 137.005 26.2313H133.197L132.747 32.0712H136.406C138.439 32.0712 139.53 31.0996 139.68 29.1673ZM146.944 28.9751C146.73 31.7722 145.607 33.9288 143.574 35.4342C141.541 36.9502 139.006 37.7082 135.967 37.7082H125.162L127.173 11.5943H134.331L133.614 20.8292H137.369C140.504 20.8292 142.932 21.5125 144.665 22.8577C146.399 24.2028 147.158 26.242 146.944 28.9751ZM146.987 37.7082L148.902 12.8221L156.145 11.5943L154.134 37.7082H146.987ZM101.304 37.7082L106.589 21.2669C108.911 14.0285 108.59 11.5943 116.539 11.5943H122.305L124.071 37.7082H116.913L115.565 17.7544C115.565 17.7865 108.718 37.3132 108.665 37.7082H101.304ZM87.5781 26.6797C87.2892 30.4377 88.4981 32.3167 91.1942 32.3167C93.9009 32.3167 95.3987 30.4377 95.6875 26.6797L95.9978 22.6335C96.2867 18.8754 95.0777 16.9858 92.371 16.9858C89.675 16.9858 88.1772 18.8754 87.8883 22.6335L87.5781 26.6797ZM80.4529 26.9253L80.8059 22.3772C81.0734 18.8861 82.3251 16.1103 84.5504 14.0391C86.7757 11.9786 89.5359 10.9431 92.8417 10.9431C96.1476 10.9431 98.7473 11.9786 100.662 14.0391C102.567 16.1103 103.39 18.8861 103.123 22.3772L102.77 26.9253C102.503 30.4164 101.251 33.2028 99.0255 35.2633C96.8002 37.3238 94.0293 38.3594 90.7341 38.3594C87.4283 38.3594 84.8178 37.3238 82.9135 35.2633C81.0092 33.2028 80.1854 30.4164 80.4529 26.9253ZM64.6511 17.4875L63.0892 37.7082H55.9426L57.9432 11.5943H79.3616L77.3503 37.7082H70.193L71.755 17.4875H64.6511ZM111.029 7.85765L112.581 3.0427C113.255 0.918149 113.158 0.213523 115.491 0.213523H117.181L117.694 7.85765H115.597L115.202 2.00712C115.202 2.01779 113.201 7.74021 113.18 7.85765H111.029ZM152.796 3.16014H154.882L154.893 2.9573C154.925 2.61566 154.85 2.33808 154.679 2.11388C154.519 1.88968 154.273 1.77224 153.952 1.77224C153.641 1.77224 153.385 1.88968 153.171 2.11388C152.957 2.33808 152.839 2.61566 152.818 2.9573L152.796 3.16014ZM150.603 4.72954L150.71 3.23488C150.796 2.22064 151.149 1.43061 151.78 0.854093C152.422 0.288256 153.181 0 154.08 0C154.968 0 155.685 0.27758 156.252 0.83274C156.808 1.3879 157.054 2.1032 156.99 2.9573L156.862 4.62278H152.689L152.679 4.72954C152.604 5.75445 153.01 6.25623 153.909 6.25623C154.551 6.25623 155.824 6 156.594 5.75445L156.455 7.53737C155.621 7.8363 154.626 8.02847 153.77 8.02847C152.732 8.02847 151.919 7.74021 151.341 7.1637C150.764 6.59786 150.517 5.7758 150.603 4.72954ZM144.569 5.33808C144.612 4.76157 144.355 4.47331 143.788 4.47331H142.675L142.536 6.19217H143.606C144.205 6.19217 144.526 5.90391 144.569 5.33808ZM146.698 5.2847C146.634 6.09609 146.302 6.73665 145.714 7.17438C145.115 7.62278 144.366 7.8363 143.478 7.8363H140.322L140.91 0.192171H142.996L142.793 2.90391H143.895C144.815 2.90391 145.521 3.09609 146.024 3.4911C146.538 3.88612 146.762 4.48399 146.698 5.2847ZM147.158 7.8363L147.747 0.192171H149.843L149.255 7.8363H147.158ZM137.455 0.192171H139.551L138.963 7.8363H136.866L137.112 4.72954H135.015L134.769 7.8363H132.672L133.271 0.192171H135.358L135.144 3H137.241L137.455 0.192171ZM129.816 0.192171H131.913L131.324 7.8363H129.227L129.463 4.72954H127.377L127.13 7.8363H125.034L125.622 0.192171H127.719L127.505 3H129.602L129.816 0.192171ZM120.187 3.16014H122.273L122.284 2.9573C122.316 2.61566 122.241 2.33808 122.07 2.11388C121.91 1.88968 121.664 1.77224 121.343 1.77224C121.032 1.77224 120.776 1.88968 120.562 2.11388C120.348 2.33808 120.23 2.61566 120.209 2.9573L120.187 3.16014ZM117.994 4.72954L118.101 3.23488C118.187 2.22064 118.54 1.43061 119.171 0.854093C119.813 0.288256 120.572 0 121.471 0C122.348 0 123.076 0.27758 123.632 0.83274C124.199 1.3879 124.445 2.1032 124.381 2.9573L124.253 4.62278H120.08L120.069 4.72954C119.995 5.75445 120.401 6.25623 121.3 6.25623C121.942 6.25623 122.648 6.13879 123.418 5.89324L123.707 7.58007C122.862 7.879 122.017 8.02847 121.161 8.02847C120.123 8.02847 119.31 7.74021 118.732 7.1637C118.154 6.59786 117.908 5.7758 117.994 4.72954ZM111.029 0.213523L110.441 7.85765H100.759L101.347 0.213523H103.444L102.984 6.12811H104.685L105.145 0.213523H107.231L106.782 6.12811H108.483L108.932 0.213523H111.029ZM94.714 5.35943C94.7568 4.78292 94.5 4.49466 93.933 4.49466H92.8203L92.692 6.20285H93.7618C94.3502 6.20285 94.6712 5.92527 94.714 5.35943ZM96.843 5.29537C96.7788 6.11744 96.4471 6.74733 95.8587 7.18505C95.2596 7.63345 94.5214 7.85765 93.6334 7.85765H90.4667L91.0551 0.213523H93.152L92.938 2.91459H94.04C94.96 2.91459 95.6661 3.10676 96.1797 3.50178C96.6825 3.8968 96.9072 4.49466 96.843 5.29537ZM97.303 7.85765L97.8914 0.213523H99.9883L99.3999 7.85765H97.303ZM81.5334 0.213523H84.1652L85.1388 4.29181L86.7543 0.213523H89.3754L89.5466 7.85765H87.4283L87.3962 3.07473L86.0054 6.56584H83.9299L83.0633 3.06406L82.293 7.85765H80.1747L81.5334 0.213523ZM75.3069 4.62278C75.2213 5.72242 75.5743 6.27758 76.366 6.27758C77.1577 6.27758 77.5856 5.72242 77.6712 4.62278L77.7675 3.43772C77.8531 2.33808 77.5001 1.78292 76.7084 1.78292C75.9167 1.78292 75.478 2.33808 75.3925 3.43772L75.3069 4.62278ZM73.2207 4.69751L73.3169 3.36299C73.4025 2.34875 73.7663 1.52669 74.4189 0.928826C75.0715 0.320285 75.8739 0.0213523 76.8475 0.0213523C77.8103 0.0213523 78.5699 0.320285 79.1369 0.928826C79.6933 1.52669 79.9286 2.34875 79.8537 3.36299L79.7467 4.69751C79.6719 5.72242 79.3081 6.53381 78.6555 7.14235C78.0029 7.74021 77.1898 8.04982 76.2269 8.04982C75.2641 8.04982 74.4938 7.74021 73.9375 7.14235C73.3811 6.53381 73.1351 5.72242 73.2207 4.69751ZM60.789 1.93238L60.3289 7.85765H58.2427L58.8312 0.213523H65.1005L64.5121 7.85765H62.4152L62.8645 1.93238H60.789ZM65.8387 7.85765L66.4378 0.213523H69.9255C71.3484 0.213523 72.9318 1.05694 72.8034 2.65836C72.6964 4.09964 71.1558 5.27402 69.5404 5.27402H68.171L67.9784 7.85765H65.8387ZM68.2993 3.68327H69.5939C70.9633 3.68327 71.4126 1.94306 69.7222 1.94306H68.4277L68.2993 3.68327ZM17.7381 13.847L31.8816 27.7046L25.0666 34.6335H52.84L52.3372 6.91815L45.5115 13.847L32.9835 1.5694C31.8923 0.629893 30.8331 0.672598 29.8168 1.55872L17.7381 13.847ZM31.8495 21.1281L38.4505 27.5872L35.273 30.8221H48.2289L47.9935 17.8932L44.8054 21.1281L38.2151 14.6584L31.8495 21.1281Z" fill="white"/>
</svg>
