<svg width="146" height="42" viewBox="0 0 146 42" fill="none" xmlns="http://www.w3.org/2000/svg">
<path fill-rule="evenodd" clip-rule="evenodd" d="M1.56592 12.9609L14.543 25.7045L8.28792 32.0763C17.4419 32.0763 14.2998 32.0763 19.1832 32.0763L25.4383 25.7045L12.4612 12.9609L19.6112 5.63578L15.5839 1.68624C14.6305 0.888552 13.648 0.820457 12.6558 1.66679L1.56592 12.9609Z" fill="#434049"/>
<path fill-rule="evenodd" clip-rule="evenodd" d="M17.2471 12.9607L30.2241 25.7043L23.9691 32.0761H49.4563L48.9893 6.59867L42.7343 12.9705L31.2358 1.67634C30.2339 0.810549 29.2708 0.849461 28.3369 1.67634L17.2471 12.9607ZM30.1949 19.6536L36.2554 25.5973L33.3371 28.5741H45.2246L45.0009 16.6865L42.0825 19.6536L36.0317 13.7098L30.1949 19.6536Z" fill="#911E23"/>
<path d="M102.844 7.4547L104.264 3.02849C104.886 1.0829 104.799 0.431131 106.939 0.431131H108.486L108.953 7.4547H107.036L106.667 2.08488C106.676 2.09461 104.828 7.34769 104.818 7.4547H102.844ZM141.162 3.14522H143.069L143.088 2.95067C143.107 2.63937 143.049 2.37672 142.893 2.17243C142.738 1.96814 142.514 1.86114 142.213 1.86114C141.94 1.86114 141.707 1.96814 141.502 2.17243C141.308 2.37672 141.201 2.63937 141.181 2.95067L141.162 3.14522ZM139.148 4.58496L139.245 3.21332C139.323 2.27944 139.644 1.54984 140.228 1.02453C140.812 0.499226 141.512 0.236572 142.339 0.236572C143.146 0.236572 143.808 0.489498 144.323 1.00508C144.839 1.51093 145.073 2.1627 145.014 2.95067L144.888 4.48768H141.065L141.055 4.58496C140.977 5.51884 141.356 5.99551 142.183 5.99551C142.777 5.99551 143.944 5.75231 144.644 5.52857L144.518 7.16286C143.75 7.43524 142.835 7.62007 142.057 7.62007C141.094 7.62007 140.354 7.35742 139.829 6.82238C139.294 6.29707 139.07 5.54802 139.148 4.58496ZM133.613 5.14918C133.652 4.61414 133.409 4.35149 132.893 4.35149H131.872L131.745 5.92741H132.728C133.282 5.92741 133.574 5.66476 133.613 5.14918ZM135.568 5.09081C135.51 5.83986 135.208 6.42354 134.654 6.83211C134.109 7.24068 133.428 7.44497 132.611 7.44497H129.712L130.247 0.411675H132.173L131.979 2.90203H132.99C133.837 2.90203 134.489 3.07713 134.955 3.44679C135.413 3.80672 135.617 4.35149 135.568 5.09081ZM135.987 7.44497L136.531 0.411675H138.448L137.913 7.44497H135.987ZM127.086 0.411675H129.012L128.467 7.44497H126.551L126.765 4.58496H124.848L124.624 7.44497H122.698L123.243 0.411675H125.159L124.965 2.98958H126.891L127.086 0.411675ZM120.081 0.411675H121.998L121.463 7.44497H119.537L119.76 4.58496H117.834L117.611 7.44497H115.694L116.229 0.411675H118.155L117.961 2.98958H119.877L120.081 0.411675ZM111.249 3.14522H113.155L113.165 2.95067C113.194 2.63937 113.126 2.37672 112.97 2.17243C112.815 1.96814 112.591 1.86114 112.299 1.86114C112.017 1.86114 111.784 1.96814 111.589 2.17243C111.394 2.37672 111.287 2.63937 111.258 2.95067L111.249 3.14522ZM109.225 4.58496L109.332 3.21332C109.4 2.27944 109.731 1.54984 110.315 1.02453C110.898 0.499226 111.599 0.236572 112.426 0.236572C113.233 0.236572 113.895 0.489498 114.41 1.00508C114.926 1.51093 115.149 2.1627 115.091 2.95067L114.974 4.48768H111.141L111.132 4.58496C111.064 5.51884 111.443 5.99551 112.26 5.99551C112.854 5.99551 113.505 5.87877 114.216 5.65503L114.468 7.20177C113.69 7.48388 112.922 7.62007 112.134 7.62007C111.18 7.62007 110.431 7.35742 109.906 6.82238C109.381 6.29707 109.147 5.54802 109.225 4.58496ZM102.844 0.431131L102.299 7.4547H93.4172L93.9522 0.431131H95.8784L95.4601 5.86904H97.0165L97.4348 0.431131H99.361L98.9427 5.86904H100.499L100.917 0.431131H102.844ZM87.8723 5.15891C87.9112 4.6336 87.6777 4.36122 87.1524 4.36122H86.131L86.0142 5.93714H86.9968C87.5415 5.93714 87.8334 5.67449 87.8723 5.15891ZM89.8276 5.10054C89.7692 5.85932 89.4677 6.43326 88.9229 6.84184C88.3781 7.25041 87.6972 7.4547 86.88 7.4547H83.9714L84.5161 0.431131H86.4326L86.2477 2.91175H87.2497C88.096 2.91175 88.7478 3.09658 89.2147 3.45652C89.6817 3.81645 89.886 4.37094 89.8276 5.10054ZM90.2556 7.4547L90.7907 0.431131H92.7168L92.172 7.4547H90.2556ZM75.7805 0.431131H78.193L79.088 4.17638L80.5666 0.431131H82.9791L83.1348 7.4547H81.1892L81.16 3.05767L79.8759 6.27762H77.979L77.1813 3.04794L76.4809 7.4547H74.5353L75.7805 0.431131ZM70.0604 4.48768C69.9826 5.49938 70.3134 6.00524 71.0332 6.00524C71.7628 6.00524 72.1617 5.49938 72.2395 4.48768L72.3271 3.39815C72.4049 2.38645 72.0741 1.88059 71.3543 1.88059C70.6247 1.88059 70.2258 2.38645 70.148 3.39815L70.0604 4.48768ZM68.144 4.55577L68.2413 3.33005C68.3191 2.38645 68.6499 1.63739 69.253 1.0829C69.8464 0.52841 70.5858 0.256028 71.4807 0.256028C72.366 0.256028 73.0664 0.52841 73.5722 1.0829C74.0878 1.63739 74.3116 2.38645 74.2337 3.33005L74.1462 4.55577C74.0684 5.49938 73.7376 6.23871 73.1345 6.80293C72.5411 7.35742 71.8017 7.6298 70.9068 7.6298C70.0215 7.6298 69.3211 7.35742 68.8055 6.80293C68.2997 6.23871 68.0759 5.49938 68.144 4.55577ZM56.7429 2.01678L56.3246 7.4547H54.4082L54.9432 0.431131H60.7022L60.1574 7.4547H58.241L58.6593 2.01678H56.7429ZM61.3831 7.4547L61.9279 0.431131H65.1381C66.4319 0.431131 67.8911 1.20937 67.7744 2.67828C67.6674 4.00128 66.2666 5.08108 64.7782 5.08108H63.5233L63.3384 7.4547H61.3831ZM63.64 3.62189H64.8171C66.0817 3.62189 66.5 2.01678 64.9436 2.01678H63.7567L63.64 3.62189Z" fill="#434049"/>
<path d="M129.128 27.0564C129.264 25.247 128.447 24.3423 126.667 24.3423H123.184L122.766 29.7219H126.122C127.99 29.7219 128.992 28.8269 129.128 27.0564ZM135.792 26.8716C135.597 29.4398 134.566 31.4243 132.698 32.8154C130.83 34.2065 128.505 34.9069 125.723 34.9069H115.801L117.649 10.8983H124.215L123.564 19.3908H127.007C129.877 19.3908 132.115 20.0134 133.7 21.2489C135.286 22.4843 135.986 24.3618 135.792 26.8716ZM135.821 34.9069L137.582 12.0268L144.236 10.8983L142.387 34.9069H135.821ZM93.9227 34.9069L98.7672 19.7799C100.898 13.1358 100.606 10.8983 107.902 10.8983H113.184L114.809 34.9069H108.242L106.997 16.5503C107.007 16.5794 100.723 34.5372 100.664 34.9069H93.9227ZM81.325 24.7606C81.0624 28.2141 82.1616 29.9456 84.6422 29.9456C87.1229 29.9456 88.4945 28.2141 88.7572 24.7606L89.049 21.0446C89.3116 17.5814 88.2027 15.8499 85.722 15.8499C83.2512 15.8499 81.8795 17.5814 81.6071 21.0446L81.325 24.7606ZM74.7879 24.9941L75.1089 20.8111C75.3521 17.6009 76.5 15.0424 78.5428 13.1455C80.5857 11.2485 83.1247 10.3049 86.1501 10.3049C89.1852 10.3049 91.5783 11.2485 93.3293 13.1455C95.0803 15.0424 95.8294 17.6009 95.5862 20.8111L95.2651 24.9941C95.0122 28.2043 93.8741 30.7628 91.8312 32.6597C89.7883 34.5567 87.2493 35.5003 84.2142 35.5003C81.1888 35.5003 78.7958 34.5567 77.0447 32.6597C75.2937 30.7628 74.5447 28.2043 74.7879 24.9941ZM60.2932 16.3168L58.8632 34.9069H52.2969L54.1452 10.8983H73.7859L71.9473 34.9069H65.3809L66.8109 16.3168H60.2932Z" fill="#434049"/>
<path d="M52.2966 34.9048H1.56494L0.976767 41.6096H51.7084L52.2966 34.9048Z" fill="#E6C832"/>
<path d="M55.595 40.9384L55.8284 38.4091C55.8382 38.3605 55.8382 38.3216 55.8479 38.2827C55.8576 38.234 55.8576 38.1854 55.8673 38.1465H55.8576C55.8382 38.1854 55.8187 38.234 55.7895 38.273C55.7701 38.3021 55.7409 38.3411 55.7117 38.38L55.6339 38.5162L53.8828 40.9384H53.5132L53.8245 37.6309H54.1844L53.9607 39.9559C53.9607 40.0143 53.9509 40.0629 53.9509 40.1115C53.9412 40.1602 53.9315 40.1991 53.9315 40.238C53.9218 40.2866 53.9218 40.3353 53.912 40.3742H53.9218C53.9509 40.3353 53.9704 40.2964 53.9996 40.2575C54.019 40.2185 54.0385 40.1796 54.0677 40.1407C54.0969 40.1018 54.126 40.0532 54.1552 40.0143L55.8771 37.6309H56.2662L55.9452 40.9384H55.595ZM58.4744 40.9384L58.6203 39.4014H57.2195L57.0736 40.9384H56.6748L56.9861 37.6309H57.3849L57.2487 39.0706H58.6495L58.7857 37.6309H59.1846L58.8733 40.9384H58.4744ZM61.4025 40.9384L61.5485 39.4014H60.1379L59.992 40.9384H59.5931L59.9142 37.6309H60.313L60.1768 39.0706H61.5776L61.7138 37.6309H62.1127L61.8014 40.9384H61.4025ZM65.1186 39.2847C65.0894 39.5181 65.0408 39.7419 64.9727 39.9462C64.8949 40.1602 64.7976 40.3353 64.6808 40.4909C64.5641 40.6466 64.4182 40.7633 64.2528 40.8606C64.0874 40.9481 63.8929 40.9968 63.6886 40.9968C63.4746 40.9968 63.2898 40.9481 63.1438 40.8606C62.9882 40.7633 62.8715 40.6466 62.7839 40.4909C62.6866 40.3353 62.6283 40.1602 62.5991 39.9462C62.5602 39.7419 62.5602 39.5181 62.5796 39.2847C62.5991 39.0512 62.6477 38.8275 62.7255 38.6232C62.7936 38.4091 62.8909 38.234 63.0076 38.0784C63.1341 37.9228 63.2703 37.806 63.4454 37.7087C63.6108 37.6212 63.7956 37.5823 64.0096 37.5823C64.2236 37.5823 64.3987 37.6212 64.5544 37.7087C64.7003 37.806 64.817 37.9228 64.9143 38.0784C65.0019 38.234 65.0602 38.4091 65.0991 38.6232C65.1283 38.8275 65.1381 39.0512 65.1186 39.2847ZM64.7198 39.2847C64.7392 39.0901 64.7392 38.915 64.7198 38.7496C64.7003 38.5843 64.6517 38.4383 64.5933 38.3216C64.5349 38.2049 64.4474 38.1076 64.3501 38.0395C64.2431 37.9617 64.1166 37.9325 63.9707 37.9325C63.8345 37.9325 63.6983 37.9617 63.5816 38.0395C63.4649 38.1076 63.3676 38.2049 63.28 38.3216C63.2022 38.4383 63.1341 38.5843 63.0757 38.7496C63.0271 38.915 62.9882 39.0901 62.9687 39.2847C62.9493 39.4792 62.959 39.6543 62.9785 39.8197C62.9979 39.9851 63.0368 40.131 63.1049 40.2477C63.1633 40.3645 63.2411 40.4617 63.3481 40.5298C63.4551 40.6077 63.5719 40.6368 63.7178 40.6368C63.8637 40.6368 63.9902 40.6077 64.1069 40.5298C64.2236 40.4617 64.3209 40.3645 64.4085 40.2477C64.496 40.131 64.5641 39.9851 64.6128 39.8197C64.6711 39.6543 64.7003 39.4792 64.7198 39.2847ZM67.8424 40.0629C67.8132 40.3547 67.6868 40.5785 67.4533 40.7439C67.2198 40.9092 66.8988 40.9968 66.5 40.9968C66.4221 40.9968 66.3346 40.9871 66.247 40.9773C66.1692 40.9676 66.0817 40.9579 66.0038 40.9384C65.926 40.9287 65.8482 40.9092 65.7801 40.8898C65.712 40.8703 65.6536 40.8411 65.605 40.8217L65.8871 37.7477C66.0038 37.699 66.1498 37.6601 66.3054 37.6212C66.4708 37.592 66.6362 37.5823 66.8113 37.5823C67.1907 37.5823 67.4728 37.6601 67.6479 37.8157C67.8327 37.9811 67.9105 38.1854 67.8813 38.4383C67.8716 38.5453 67.8424 38.6426 67.8035 38.7302C67.7646 38.8177 67.7062 38.8955 67.6479 38.9636C67.5895 39.0317 67.5214 39.0804 67.4533 39.1193C67.3755 39.1679 67.3074 39.1874 67.249 39.2068V39.2166C67.3171 39.236 67.3852 39.2652 67.463 39.3041C67.5409 39.343 67.609 39.4014 67.6673 39.4695C67.7257 39.5376 67.7743 39.6154 67.8035 39.7224C67.8424 39.8197 67.8522 39.9364 67.8424 40.0629ZM67.5019 38.4675C67.5117 38.2827 67.463 38.1465 67.3366 38.0395C67.2198 37.9422 67.035 37.8936 66.7821 37.8936C66.6848 37.8936 66.5778 37.8936 66.4902 37.913C66.393 37.9228 66.3054 37.9422 66.247 37.9714L66.14 39.0901H66.6264C66.7043 39.0901 66.7724 39.0901 66.8307 39.0901C66.8891 39.0804 66.9475 39.0706 66.9864 39.0609C67.035 39.0512 67.0739 39.0415 67.1128 39.022C67.1517 39.0026 67.1907 38.9831 67.2296 38.9539C67.3074 38.9053 67.3658 38.8372 67.4144 38.7496C67.463 38.6718 67.4922 38.5745 67.5019 38.4675ZM67.4533 40.0434C67.4728 39.7905 67.3852 39.6154 67.1907 39.4987C67.1615 39.4792 67.1226 39.4598 67.0836 39.45C67.0447 39.4306 67.0058 39.4209 66.9669 39.4111C66.9183 39.4014 66.8696 39.4014 66.8113 39.3917C66.7626 39.3917 66.6945 39.3819 66.6167 39.3819H66.1109L65.9941 40.5979C66.0622 40.6271 66.14 40.6466 66.2373 40.6563C66.3346 40.6758 66.4319 40.6855 66.5292 40.6855C66.8113 40.6855 67.0253 40.6271 67.1809 40.5201C67.3463 40.4131 67.4339 40.2477 67.4533 40.0434ZM70.4982 40.9384L70.2452 39.9753H68.932L68.5039 40.9384H68.0856L69.5837 37.6309H70.0409L70.9067 40.9384H70.4982ZM69.8464 38.3313C69.8367 38.2924 69.8269 38.2438 69.8269 38.2049C69.8172 38.1562 69.8075 38.1173 69.7977 38.0784C69.7977 38.0298 69.788 37.9908 69.788 37.9519H69.7783C69.7686 37.9908 69.7588 38.0298 69.7394 38.0784C69.7102 38.1562 69.681 38.2438 69.6421 38.3313L69.0487 39.6738H70.1869L69.8464 38.3313ZM73.65 41.6096H73.3582L73.4068 40.9384H71.3639L71.6752 37.6309H72.0741L71.792 40.6077H73.1733L73.4554 37.6309H73.8446L73.5625 40.6077L73.757 40.6855L73.65 41.6096ZM76.4225 40.9384L76.6657 38.4091C76.6657 38.3605 76.6754 38.3216 76.6851 38.2827C76.6851 38.234 76.6948 38.1854 76.6948 38.1465H76.6851C76.6657 38.1854 76.6462 38.234 76.6267 38.273C76.5976 38.3021 76.5781 38.3411 76.5489 38.38L76.4614 38.5162L74.7103 40.9384H74.3407L74.652 37.6309H75.0216L74.7979 39.9559C74.7882 40.0143 74.7882 40.0629 74.7784 40.1115C74.7687 40.1602 74.7687 40.1991 74.7687 40.238C74.759 40.2866 74.7493 40.3353 74.7493 40.3742H74.759C74.7784 40.3353 74.7979 40.2964 74.8271 40.2575C74.8465 40.2185 74.8757 40.1796 74.8952 40.1407C74.9244 40.1018 74.9535 40.0532 74.9827 40.0143L76.7046 37.6309H77.0937L76.7824 40.9384H76.4225ZM79.584 40.9384L79.8272 38.4091C79.8272 38.3605 79.837 38.3216 79.8467 38.2827C79.8467 38.234 79.8564 38.1854 79.8564 38.1465C79.837 38.1854 79.8078 38.234 79.7883 38.273C79.7591 38.3021 79.7397 38.3411 79.7105 38.38L79.623 38.5162L77.8719 40.9384H77.5023L77.8233 37.6309H78.1832L77.9595 39.9559C77.9497 40.0143 77.9497 40.0629 77.94 40.1115C77.94 40.1602 77.9303 40.1991 77.9303 40.238C77.9206 40.2866 77.9108 40.3353 77.9108 40.3742H77.9206C77.94 40.3353 77.9692 40.2964 77.9887 40.2575C78.0081 40.2185 78.0373 40.1796 78.0665 40.1407C78.0859 40.1018 78.1151 40.0532 78.154 40.0143L79.8661 37.6309H80.2553L79.944 40.9384H79.584ZM81.1697 40.7049C81.16 40.7828 81.1308 40.8411 81.0724 40.8995C81.014 40.9481 80.9557 40.9773 80.8779 40.9773C80.8098 40.9773 80.7417 40.9481 80.7028 40.8995C80.6541 40.8411 80.6347 40.7828 80.6347 40.7049C80.6444 40.6368 80.6736 40.5688 80.7319 40.5201C80.7903 40.4715 80.8584 40.4423 80.9265 40.4423C81.0043 40.4423 81.0627 40.4715 81.1113 40.5201C81.16 40.5688 81.1794 40.6368 81.1697 40.7049ZM84.8663 40.9384L84.4286 39.9073C84.3605 39.7419 84.2632 39.6057 84.127 39.4987C83.9908 39.4014 83.8157 39.343 83.6114 39.343L83.4655 40.9384H83.0666L83.3877 37.6309H83.7768L83.6309 39.1679H83.6406L85.0998 37.6309H85.5764L84.0783 39.1582C84.4286 39.2555 84.6717 39.4792 84.8274 39.8392L85.3138 40.9384H84.8663ZM87.9111 40.9384L87.6679 39.9753H86.345L85.9169 40.9384H85.5084L87.0065 37.6309H87.4539L88.3197 40.9384H87.9111ZM87.2691 38.3313C87.2594 38.2924 87.2496 38.2438 87.2399 38.2049C87.2302 38.1562 87.2205 38.1173 87.2205 38.0784C87.2107 38.0298 87.201 37.9908 87.201 37.9519H87.1913C87.1816 37.9908 87.1718 38.0298 87.1524 38.0784C87.1329 38.1562 87.094 38.2438 87.0551 38.3313L86.4714 39.6738H87.5999L87.2691 38.3313ZM90.168 40.9384L90.2945 39.5765C90.2556 39.596 90.2069 39.6154 90.1486 39.6349C90.0902 39.6543 90.0318 39.6641 89.9637 39.6835C89.9054 39.6932 89.8373 39.703 89.7692 39.7127C89.7108 39.7224 89.6525 39.7224 89.5941 39.7224C89.4384 39.7224 89.2925 39.703 89.1661 39.6543C89.0396 39.6057 88.9423 39.5376 88.8548 39.45C88.7769 39.3528 88.7186 39.2458 88.6797 39.1193C88.6407 38.9928 88.631 38.8566 88.6505 38.6913L88.7478 37.6309H89.1466L89.0493 38.6718C89.0299 38.9053 89.0688 39.0706 89.1855 39.1971C89.3022 39.3138 89.4773 39.3722 89.7011 39.3722C89.7497 39.3722 89.7984 39.3722 89.8567 39.3625C89.9151 39.3528 89.9735 39.343 90.0318 39.3333C90.0902 39.3236 90.1486 39.3041 90.1972 39.2944C90.2556 39.2749 90.2945 39.2555 90.3334 39.236L90.4891 37.6309H90.8782L90.5669 40.9384H90.168ZM91.2867 40.9384L91.6078 37.6309H93.3199L93.2907 37.9714H91.958L91.8607 39.0706H93.0767L93.0475 39.4014H91.8218L91.7148 40.6077H93.0378L93.0086 40.9384H91.2867ZM95.4503 40.8217C95.3725 40.8703 95.2655 40.9092 95.139 40.9481C95.0125 40.9773 94.8764 40.9968 94.7304 40.9968C94.5553 40.9968 94.39 40.9579 94.2343 40.8898C94.0884 40.8217 93.9619 40.7147 93.8549 40.5785C93.7479 40.4326 93.6701 40.2575 93.6214 40.0434C93.5825 39.8294 93.5631 39.5765 93.5923 39.2847C93.6214 38.9928 93.6798 38.7399 93.7674 38.5259C93.8549 38.3119 93.9716 38.1368 94.0981 37.9908C94.2343 37.8547 94.3802 37.7477 94.5456 37.6796C94.7012 37.6115 94.8764 37.5823 95.0515 37.5823C95.1974 37.5823 95.3336 37.592 95.46 37.6212C95.5768 37.6601 95.674 37.699 95.7421 37.7477L95.5865 38.0687C95.5281 38.0298 95.46 38.0006 95.3725 37.9714C95.2752 37.9422 95.1682 37.9228 95.0515 37.9228C94.925 37.9228 94.8083 37.9519 94.6915 38.0103C94.5748 38.0589 94.4678 38.1368 94.3705 38.2535C94.2829 38.3605 94.1954 38.5064 94.137 38.6718C94.0689 38.8469 94.0203 39.0512 94.0008 39.2847C93.9814 39.5084 93.9814 39.7127 94.0203 39.8878C94.0495 40.0532 94.1078 40.1991 94.1759 40.3061C94.2538 40.4228 94.3413 40.5007 94.4483 40.559C94.5553 40.6077 94.6721 40.6368 94.7985 40.6368C94.9153 40.6368 95.0223 40.6271 95.1195 40.5979C95.2168 40.5688 95.2947 40.5298 95.353 40.4909L95.4503 40.8217ZM97.2986 37.9714L97.0165 40.9384H96.6274L96.9095 37.9714H96.0826L96.1118 37.6309H98.1547L98.1255 37.9714H97.2986ZM100.616 40.0629C100.587 40.3547 100.46 40.5785 100.227 40.7439C99.9932 40.9092 99.6819 40.9968 99.2734 40.9968C99.1955 40.9968 99.108 40.9871 99.0204 40.9773C98.9426 40.9676 98.8551 40.9579 98.7772 40.9384C98.6994 40.9287 98.6216 40.9092 98.5535 40.8898C98.4854 40.8703 98.427 40.8411 98.3784 40.8217L98.6702 37.7477C98.7772 37.699 98.9232 37.6601 99.0788 37.6212C99.2442 37.592 99.4193 37.5823 99.5847 37.5823C99.9641 37.5823 100.246 37.6601 100.421 37.8157C100.606 37.9811 100.684 38.1854 100.655 38.4383C100.645 38.5453 100.616 38.6426 100.577 38.7302C100.538 38.8177 100.48 38.8955 100.421 38.9636C100.363 39.0317 100.295 39.0804 100.227 39.1193C100.149 39.1679 100.081 39.1874 100.022 39.2068V39.2166C100.091 39.236 100.159 39.2652 100.236 39.3041C100.314 39.343 100.382 39.4014 100.441 39.4695C100.499 39.5376 100.548 39.6154 100.587 39.7224C100.616 39.8197 100.626 39.9364 100.616 40.0629ZM100.275 38.4675C100.295 38.2827 100.236 38.1465 100.11 38.0395C99.9932 37.9422 99.8084 37.8936 99.5555 37.8936C99.4582 37.8936 99.3512 37.8936 99.2636 37.913C99.1664 37.9228 99.0885 37.9422 99.0204 37.9714L98.9134 39.0901H99.3998C99.4777 39.0901 99.5458 39.0901 99.6041 39.0901C99.6625 39.0804 99.7209 39.0706 99.7598 39.0609C99.8084 39.0512 99.857 39.0415 99.8862 39.022C99.9251 39.0026 99.9641 38.9831 100.003 38.9539C100.081 38.9053 100.139 38.8372 100.188 38.7496C100.236 38.6718 100.266 38.5745 100.275 38.4675ZM100.227 40.0434C100.246 39.7905 100.159 39.6154 99.9738 39.4987C99.9349 39.4792 99.896 39.4598 99.857 39.45C99.8181 39.4306 99.7792 39.4209 99.7403 39.4111C99.6917 39.4014 99.643 39.4014 99.5847 39.3917C99.536 39.3917 99.4679 39.3819 99.3901 39.3819H98.8843L98.7675 40.5979C98.8356 40.6271 98.9134 40.6466 99.0107 40.6563C99.108 40.6758 99.2053 40.6855 99.3123 40.6855C99.5847 40.6855 99.7987 40.6271 99.9641 40.5201C100.12 40.4131 100.207 40.2477 100.227 40.0434ZM103.729 39.2847C103.7 39.5181 103.651 39.7419 103.583 39.9462C103.505 40.1602 103.408 40.3353 103.291 40.4909C103.174 40.6466 103.028 40.7633 102.863 40.8606C102.698 40.9481 102.503 40.9968 102.299 40.9968C102.085 40.9968 101.9 40.9481 101.754 40.8606C101.608 40.7633 101.482 40.6466 101.394 40.4909C101.307 40.3353 101.238 40.1602 101.209 39.9462C101.17 39.7419 101.17 39.5181 101.19 39.2847C101.209 39.0512 101.258 38.8275 101.336 38.6232C101.404 38.4091 101.501 38.234 101.618 38.0784C101.744 37.9228 101.88 37.806 102.056 37.7087C102.221 37.6212 102.406 37.5823 102.62 37.5823C102.834 37.5823 103.009 37.6212 103.165 37.7087C103.31 37.806 103.427 37.9228 103.524 38.0784C103.612 38.234 103.67 38.4091 103.709 38.6232C103.738 38.8275 103.748 39.0512 103.729 39.2847ZM103.33 39.2847C103.349 39.0901 103.349 38.915 103.33 38.7496C103.31 38.5843 103.262 38.4383 103.203 38.3216C103.145 38.2049 103.058 38.1076 102.96 38.0395C102.853 37.9617 102.727 37.9325 102.581 37.9325C102.445 37.9325 102.308 37.9617 102.192 38.0395C102.075 38.1076 101.978 38.2049 101.89 38.3216C101.812 38.4383 101.744 38.5843 101.686 38.7496C101.637 38.915 101.598 39.0901 101.579 39.2847C101.559 39.4792 101.569 39.6543 101.589 39.8197C101.608 39.9851 101.647 40.131 101.715 40.2477C101.773 40.3645 101.851 40.4617 101.958 40.5298C102.065 40.6077 102.182 40.6368 102.328 40.6368C102.474 40.6368 102.6 40.6077 102.717 40.5298C102.834 40.4617 102.931 40.3645 103.019 40.2477C103.106 40.131 103.174 39.9851 103.223 39.8197C103.281 39.6543 103.31 39.4792 103.33 39.2847ZM104.526 40.7049C104.517 40.7828 104.488 40.8411 104.429 40.8995C104.371 40.9481 104.312 40.9773 104.235 40.9773C104.167 40.9773 104.108 40.9481 104.06 40.8995C104.011 40.8411 103.991 40.7828 104.001 40.7049C104.001 40.6368 104.04 40.5688 104.089 40.5201C104.147 40.4715 104.215 40.4423 104.283 40.4423C104.361 40.4423 104.419 40.4715 104.468 40.5201C104.517 40.5688 104.536 40.6368 104.526 40.7049ZM109.147 41.6096H108.855L108.904 40.9384H106.56L106.482 41.6096H106.19L106.258 40.6855C106.423 40.559 106.56 40.4034 106.686 40.2283C106.803 40.0434 106.91 39.8489 106.997 39.6543C107.085 39.45 107.153 39.2458 107.211 39.0415C107.27 38.8372 107.318 38.6426 107.357 38.4578L107.532 37.6309H109.001L109.06 40.6077L109.254 40.6855L109.147 41.6096ZM108.632 37.9617H107.844L107.727 38.4967C107.698 38.6718 107.649 38.8566 107.6 39.0609C107.542 39.2555 107.474 39.45 107.396 39.6446C107.318 39.8392 107.231 40.0143 107.134 40.1894C107.036 40.3547 106.92 40.5007 106.793 40.6271H108.671L108.632 37.9617ZM112.309 39.2847C112.289 39.5181 112.241 39.7419 112.173 39.9462C112.095 40.1602 111.998 40.3353 111.881 40.4909C111.764 40.6466 111.618 40.7633 111.453 40.8606C111.278 40.9481 111.093 40.9968 110.879 40.9968C110.675 40.9968 110.49 40.9481 110.344 40.8606C110.188 40.7633 110.071 40.6466 109.984 40.4909C109.887 40.3353 109.828 40.1602 109.789 39.9462C109.76 39.7419 109.75 39.5181 109.78 39.2847C109.799 39.0512 109.848 38.8275 109.916 38.6232C109.994 38.4091 110.091 38.234 110.208 38.0784C110.324 37.9228 110.47 37.806 110.636 37.7087C110.811 37.6212 110.996 37.5823 111.21 37.5823C111.414 37.5823 111.599 37.6212 111.745 37.7087C111.9 37.806 112.017 37.9228 112.105 38.0784C112.202 38.234 112.26 38.4091 112.299 38.6232C112.328 38.8275 112.338 39.0512 112.309 39.2847ZM111.92 39.2847C111.939 39.0901 111.939 38.915 111.91 38.7496C111.89 38.5843 111.852 38.4383 111.793 38.3216C111.725 38.2049 111.647 38.1076 111.54 38.0395C111.443 37.9617 111.317 37.9325 111.171 37.9325C111.025 37.9325 110.898 37.9617 110.782 38.0395C110.665 38.1076 110.568 38.2049 110.48 38.3216C110.392 38.4383 110.324 38.5843 110.276 38.7496C110.227 38.915 110.188 39.0901 110.169 39.2847C110.149 39.4792 110.149 39.6543 110.178 39.8197C110.198 39.9851 110.237 40.131 110.295 40.2477C110.363 40.3645 110.441 40.4617 110.548 40.5298C110.645 40.6077 110.772 40.6368 110.918 40.6368C111.054 40.6368 111.19 40.6077 111.307 40.5298C111.424 40.4617 111.521 40.3645 111.608 40.2477C111.696 40.131 111.764 39.9851 111.813 39.8197C111.861 39.6543 111.9 39.4792 111.92 39.2847ZM114.819 40.9384L114.78 37.9617H113.992L113.836 38.7107C113.797 38.9539 113.739 39.1874 113.68 39.4111C113.622 39.6349 113.544 39.8489 113.447 40.0434C113.35 40.2477 113.233 40.4228 113.087 40.5882C112.941 40.7536 112.756 40.8995 112.533 41.0162L112.435 40.6758C112.601 40.5688 112.737 40.4423 112.854 40.3061C112.97 40.1699 113.058 40.0143 113.136 39.8392C113.204 39.6738 113.272 39.489 113.321 39.2944C113.359 39.0998 113.408 38.8858 113.457 38.6718L113.671 37.6309H115.169L115.217 40.9384H114.819ZM116.54 37.9714L116.258 40.9384H115.869L116.181 37.6309H117.854L117.825 37.9714H116.54ZM120.509 39.2847C120.49 39.5181 120.441 39.7419 120.364 39.9462C120.295 40.1602 120.198 40.3353 120.081 40.4909C119.955 40.6466 119.809 40.7633 119.644 40.8606C119.478 40.9481 119.293 40.9968 119.079 40.9968C118.865 40.9968 118.69 40.9481 118.535 40.8606C118.389 40.7633 118.272 40.6466 118.175 40.4909C118.087 40.3353 118.029 40.1602 117.99 39.9462C117.961 39.7419 117.951 39.5181 117.97 39.2847C118 39.0512 118.048 38.8275 118.116 38.6232C118.194 38.4091 118.291 38.234 118.408 38.0784C118.525 37.9228 118.671 37.806 118.836 37.7087C119.002 37.6212 119.196 37.5823 119.4 37.5823C119.614 37.5823 119.799 37.6212 119.945 37.7087C120.091 37.806 120.218 37.9228 120.305 38.0784C120.393 38.234 120.461 38.4091 120.49 38.6232C120.529 38.8275 120.529 39.0512 120.509 39.2847ZM120.12 39.2847C120.13 39.0901 120.13 38.915 120.111 38.7496C120.091 38.5843 120.052 38.4383 119.984 38.3216C119.926 38.2049 119.848 38.1076 119.741 38.0395C119.634 37.9617 119.517 37.9325 119.371 37.9325C119.225 37.9325 119.099 37.9617 118.982 38.0395C118.865 38.1076 118.768 38.2049 118.681 38.3216C118.593 38.4383 118.525 38.5843 118.476 38.7496C118.418 38.915 118.389 39.0901 118.369 39.2847C118.35 39.4792 118.35 39.6543 118.369 39.8197C118.389 39.9851 118.437 40.131 118.496 40.2477C118.554 40.3645 118.642 40.4617 118.739 40.5298C118.846 40.6077 118.972 40.6368 119.109 40.6368C119.255 40.6368 119.391 40.6077 119.507 40.5298C119.624 40.4617 119.721 40.3645 119.809 40.2477C119.887 40.131 119.955 39.9851 120.013 39.8197C120.062 39.6543 120.101 39.4792 120.12 39.2847ZM123.233 40.0629C123.214 40.3547 123.078 40.5785 122.844 40.7439C122.611 40.9092 122.299 40.9968 121.901 40.9968C121.813 40.9968 121.735 40.9871 121.648 40.9773C121.56 40.9676 121.482 40.9579 121.395 40.9384C121.317 40.9287 121.249 40.9092 121.171 40.8898C121.103 40.8703 121.044 40.8411 120.996 40.8217L121.288 37.7477C121.404 37.699 121.541 37.6601 121.706 37.6212C121.871 37.592 122.037 37.5823 122.212 37.5823C122.591 37.5823 122.864 37.6601 123.048 37.8157C123.224 37.9811 123.301 38.1854 123.282 38.4383C123.262 38.5453 123.243 38.6426 123.194 38.7302C123.155 38.8177 123.107 38.8955 123.048 38.9636C122.98 39.0317 122.922 39.0804 122.844 39.1193C122.776 39.1679 122.708 39.1874 122.64 39.2068V39.2166C122.708 39.236 122.786 39.2652 122.854 39.3041C122.932 39.343 123 39.4014 123.058 39.4695C123.126 39.5376 123.165 39.6154 123.204 39.7224C123.243 39.8197 123.253 39.9364 123.233 40.0629ZM122.893 38.4675C122.912 38.2827 122.864 38.1465 122.737 38.0395C122.611 37.9422 122.426 37.8936 122.183 37.8936C122.076 37.8936 121.978 37.8936 121.881 37.913C121.784 37.9228 121.706 37.9422 121.638 37.9714L121.531 39.0901H122.017C122.095 39.0901 122.173 39.0901 122.231 39.0901C122.29 39.0804 122.338 39.0706 122.387 39.0609C122.436 39.0512 122.474 39.0415 122.513 39.022C122.552 39.0026 122.591 38.9831 122.63 38.9539C122.698 38.9053 122.757 38.8372 122.805 38.7496C122.854 38.6718 122.883 38.5745 122.893 38.4675ZM122.844 40.0434C122.873 39.7905 122.786 39.6154 122.591 39.4987C122.552 39.4792 122.513 39.4598 122.474 39.45C122.445 39.4306 122.406 39.4209 122.358 39.4111C122.319 39.4014 122.27 39.4014 122.212 39.3917C122.153 39.3917 122.085 39.3819 122.008 39.3819H121.511L121.395 40.5979C121.453 40.6271 121.531 40.6466 121.638 40.6563C121.735 40.6758 121.832 40.6855 121.93 40.6855C122.202 40.6855 122.426 40.6271 122.581 40.5201C122.737 40.4131 122.825 40.2477 122.844 40.0434ZM123.749 40.9384L124.07 37.6309H125.782L125.753 37.9714H124.43L124.323 39.0706H125.539L125.51 39.4014H124.294L124.177 40.6077H125.5L125.471 40.9384H123.749ZM127.776 40.9384L127.903 39.5765C127.864 39.596 127.815 39.6154 127.757 39.6349C127.698 39.6543 127.64 39.6641 127.572 39.6835C127.514 39.6932 127.445 39.703 127.377 39.7127C127.319 39.7224 127.261 39.7224 127.202 39.7224C127.047 39.7224 126.901 39.703 126.774 39.6543C126.648 39.6057 126.55 39.5376 126.463 39.45C126.385 39.3528 126.327 39.2458 126.288 39.1193C126.249 38.9928 126.239 38.8566 126.259 38.6913L126.356 37.6309H126.755L126.658 38.6718C126.638 38.9053 126.677 39.0706 126.794 39.1971C126.91 39.3138 127.086 39.3722 127.309 39.3722C127.358 39.3722 127.407 39.3722 127.465 39.3625C127.523 39.3528 127.582 39.343 127.64 39.3333C127.698 39.3236 127.757 39.3041 127.805 39.2944C127.864 39.2749 127.903 39.2555 127.942 39.236L128.088 37.6309H128.486L128.175 40.9384H127.776ZM130.704 40.9384L130.85 39.4014H129.44L129.294 40.9384H128.895L129.216 37.6309H129.615L129.479 39.0706H130.879L131.016 37.6309H131.414L131.103 40.9384H130.704ZM134.42 39.2847C134.391 39.5181 134.343 39.7419 134.274 39.9462C134.197 40.1602 134.099 40.3353 133.983 40.4909C133.866 40.6466 133.72 40.7633 133.555 40.8606C133.389 40.9481 133.195 40.9968 132.99 40.9968C132.776 40.9968 132.592 40.9481 132.446 40.8606C132.29 40.7633 132.173 40.6466 132.086 40.4909C131.988 40.3353 131.93 40.1602 131.901 39.9462C131.862 39.7419 131.862 39.5181 131.881 39.2847C131.901 39.0512 131.949 38.8275 132.027 38.6232C132.095 38.4091 132.193 38.234 132.309 38.0784C132.436 37.9228 132.572 37.806 132.747 37.7087C132.913 37.6212 133.097 37.5823 133.311 37.5823C133.525 37.5823 133.701 37.6212 133.856 37.7087C134.002 37.806 134.119 37.9228 134.216 38.0784C134.304 38.234 134.362 38.4091 134.401 38.6232C134.43 38.8275 134.44 39.0512 134.42 39.2847ZM134.022 39.2847C134.041 39.0901 134.041 38.915 134.022 38.7496C134.002 38.5843 133.953 38.4383 133.895 38.3216C133.837 38.2049 133.749 38.1076 133.642 38.0395C133.545 37.9617 133.418 37.9325 133.272 37.9325C133.136 37.9325 133 37.9617 132.883 38.0395C132.767 38.1076 132.669 38.2049 132.582 38.3216C132.504 38.4383 132.436 38.5843 132.378 38.7496C132.329 38.915 132.29 39.0901 132.271 39.2847C132.251 39.4792 132.261 39.6543 132.28 39.8197C132.3 39.9851 132.339 40.131 132.407 40.2477C132.465 40.3645 132.543 40.4617 132.65 40.5298C132.757 40.6077 132.874 40.6368 133.02 40.6368C133.165 40.6368 133.292 40.6077 133.409 40.5298C133.525 40.4617 133.623 40.3645 133.71 40.2477C133.798 40.131 133.866 39.9851 133.915 39.8197C133.973 39.6543 134.002 39.4792 134.022 39.2847ZM136.794 40.8217C136.716 40.8703 136.609 40.9092 136.483 40.9481C136.356 40.9773 136.22 40.9968 136.074 40.9968C135.889 40.9968 135.734 40.9579 135.578 40.8898C135.432 40.8217 135.306 40.7147 135.199 40.5785C135.092 40.4326 135.014 40.2575 134.965 40.0434C134.917 39.8294 134.907 39.5765 134.936 39.2847C134.965 38.9928 135.024 38.7399 135.111 38.5259C135.199 38.3119 135.315 38.1368 135.442 37.9908C135.578 37.8547 135.724 37.7477 135.889 37.6796C136.045 37.6115 136.22 37.5823 136.395 37.5823C136.541 37.5823 136.677 37.592 136.794 37.6212C136.92 37.6601 137.018 37.699 137.086 37.7477L136.93 38.0687C136.872 38.0298 136.804 38.0006 136.706 37.9714C136.619 37.9422 136.512 37.9228 136.395 37.9228C136.269 37.9228 136.152 37.9519 136.035 38.0103C135.918 38.0589 135.811 38.1368 135.714 38.2535C135.617 38.3605 135.539 38.5064 135.481 38.6718C135.413 38.8469 135.364 39.0512 135.345 39.2847C135.325 39.5084 135.325 39.7127 135.364 39.8878C135.393 40.0532 135.452 40.1991 135.52 40.3061C135.597 40.4228 135.685 40.5007 135.792 40.559C135.899 40.6077 136.016 40.6368 136.142 40.6368C136.259 40.6368 136.366 40.6271 136.463 40.5979C136.561 40.5688 136.638 40.5298 136.697 40.4909L136.794 40.8217ZM138.642 37.9714L138.36 40.9384H137.971L138.253 37.9714H137.426L137.456 37.6309H139.498L139.469 37.9714H138.642ZM141.843 39.9656C141.823 40.1213 141.784 40.2672 141.726 40.3839C141.658 40.5104 141.57 40.6174 141.463 40.7147C141.356 40.8022 141.22 40.8703 141.074 40.919C140.919 40.9676 140.753 40.9968 140.559 40.9968C140.393 40.9968 140.238 40.9773 140.092 40.9481C139.946 40.919 139.819 40.8703 139.712 40.8217L140.014 37.6309H140.403L140.267 39.0123C140.316 38.9928 140.384 38.9831 140.461 38.9734C140.549 38.9636 140.627 38.9539 140.705 38.9539C140.909 38.9539 141.074 38.9831 141.22 39.0317C141.376 39.0804 141.493 39.1485 141.59 39.236C141.687 39.3236 141.755 39.4306 141.794 39.557C141.843 39.6835 141.853 39.8197 141.843 39.9656ZM141.454 39.9753C141.473 39.7516 141.415 39.5765 141.279 39.4598C141.142 39.3333 140.938 39.2749 140.666 39.2749C140.598 39.2749 140.52 39.2749 140.432 39.2847C140.354 39.2944 140.286 39.3138 140.238 39.3236L140.121 40.5979C140.17 40.6271 140.238 40.6466 140.325 40.6563C140.403 40.666 140.491 40.6758 140.588 40.6758C140.851 40.6758 141.055 40.6174 141.201 40.4909C141.347 40.3742 141.424 40.1991 141.454 39.9753Z" fill="#434049"/>
</svg>
