<svg width="190" height="190" viewBox="0 0 190 190" fill="none" xmlns="http://www.w3.org/2000/svg">
    <g clip-path="url(#clip0)">
        <path d="M180.884 107.566C180.793 107.559 180.701 107.555 180.61 107.555H117.191C115.44 107.549 114.015 108.964 114.009 110.715C114.008 110.807 114.012 110.898 114.02 110.989L119.88 181.277C120.314 186.199 124.426 189.98 129.367 190H168.433C173.371 189.975 177.478 186.195 177.911 181.277L183.781 110.989C183.926 109.244 182.629 107.711 180.884 107.566ZM171.592 180.75C171.446 182.394 170.071 183.655 168.421 183.658H129.367C127.717 183.655 126.342 182.394 126.196 180.75L122.223 132.923H175.578L171.592 180.75ZM176.107 126.581H121.694L120.638 113.897H177.163L176.107 126.581Z"
              fill="#434049"/>
        <path d="M79.1398 33.2157V24.9173C85.9102 23.1749 89.986 16.2737 88.2436 9.50334C86.8024 3.90384 81.7507 -0.00712457 75.9689 1.00615e-05H37.9175C30.9263 -0.00871004 25.2519 5.65183 25.2432 12.6426C25.2361 18.4244 29.147 23.4761 34.7465 24.9173V33.2157C16.5667 49.9242 6.21633 73.4839 6.20801 98.1757V167.803C6.22188 180.056 16.1517 189.986 28.4046 190H85.4817C97.7346 189.986 107.664 180.056 107.678 167.803V98.1757C107.67 73.4839 97.3196 49.9242 79.1398 33.2157ZM31.5756 12.6838C31.5756 9.18109 34.4148 6.3419 37.9175 6.3419H75.9689C79.47 6.441 82.2279 9.35985 82.1284 12.861C82.0424 15.8995 79.812 18.4498 76.8123 18.9401C76.5408 18.843 76.2566 18.7855 75.9689 18.7688H37.9175C37.6297 18.7855 37.3455 18.843 37.074 18.9401C33.9368 18.5191 31.5903 15.8492 31.5756 12.6838ZM40.0262 36.9954C40.7028 36.393 41.0896 35.5297 41.0884 34.6236V25.3676H72.7979V34.6236C72.7967 35.5297 73.1836 36.393 73.8602 36.9954C83.8578 45.8939 91.5208 57.1084 96.1773 69.6562C83.7686 74.3437 69.9159 73.2544 58.3923 66.685C47.1549 60.2472 33.8781 58.3601 21.2922 61.4118C25.9349 52.1605 32.2922 43.8748 40.0262 36.9954ZM101.336 167.803C101.326 176.555 94.2335 183.648 85.4817 183.658H28.4046C19.6528 183.648 12.5602 176.555 12.5499 167.803V98.1757C12.5566 88.2118 14.3835 78.3327 17.9405 69.0252C30.2355 64.5232 43.8912 65.6838 55.2499 72.1961C68.3221 79.6879 84.0512 80.9721 98.1655 75.7C100.264 83.0079 101.331 90.5726 101.336 98.1757V167.803Z"
              fill="#434049"/>
        <path d="M91.8238 107.555C90.0726 107.555 88.6528 108.975 88.6528 110.726V113.897C88.6528 115.648 90.0726 117.068 91.8238 117.068C93.5749 117.068 94.9947 115.648 94.9947 113.897V110.726C94.9947 108.975 93.5749 107.555 91.8238 107.555Z"
              fill="#434049"/>
        <path d="M91.8238 123.41C90.0726 123.41 88.6528 124.83 88.6528 126.581V148.778C88.6528 150.529 90.0726 151.949 91.8238 151.949C93.5749 151.949 94.9947 150.529 94.9947 148.778V126.581C94.9947 124.83 93.5749 123.41 91.8238 123.41Z"
              fill="#434049"/>
    </g>
    <defs>
        <clipPath id="clip0">
            <rect width="190" height="190" fill="white"/>
        </clipPath>
    </defs>
</svg>
