<svg width="190" height="190" viewBox="0 0 190 190" fill="none" xmlns="http://www.w3.org/2000/svg">
    <g clip-path="url(#clip0)">
        <path d="M186.289 118.75H159.199C157.15 118.75 155.488 120.411 155.488 122.461C155.488 124.51 157.15 126.172 159.199 126.172H182.578V182.578H7.42188V151.406H100.459C102.509 151.406 104.17 149.745 104.17 147.695V126.172H125.801C127.85 126.172 129.512 124.51 129.512 122.461C129.512 120.411 127.85 118.75 125.801 118.75H104.17V48.2422C104.17 46.8001 103.346 45.5532 102.145 44.9391C103.386 42.327 106.043 40.5123 109.123 40.5123H146.745C152.673 40.5123 157.496 35.6892 157.496 29.761C157.496 27.9248 158.99 26.4312 160.825 26.4312H176.784C184.071 26.4312 190 20.5029 190 13.2158C190 5.92859 184.071 0 176.784 0H15.3492C6.88564 0 0 6.88564 0 15.3496C0 23.8131 6.88564 30.6987 15.3496 30.6987C22.5473 30.6987 28.4035 36.5546 28.4035 43.7527V44.6218C26.7421 44.9903 25.4986 46.4698 25.4986 48.2426V143.985H3.71094C1.66139 143.985 0 145.646 0 147.696V186.289C0 188.339 1.66139 190 3.71094 190H186.289C188.339 190 190 188.339 190 186.289V122.461C190 120.411 188.339 118.75 186.289 118.75ZM32.9201 51.9531H49.2482V67.7246H32.9201V51.9531ZM56.6701 48.2422C56.6701 46.2984 55.1753 44.7068 53.2727 44.5472C54.5857 42.1455 57.1354 40.5123 60.06 40.5123H67.8886C70.9939 40.5123 73.6703 42.357 74.8982 45.0048C73.7649 45.6401 72.9982 46.851 72.9982 48.2422V143.984H56.6701V48.2422ZM96.7482 143.984H80.4201V75.1465H96.7482V143.984ZM96.7482 51.9531V67.7246H80.4201V51.9531H96.7482ZM15.3492 23.2769C10.9781 23.2769 7.42188 19.7207 7.42188 15.3492C7.42188 10.9777 10.9781 7.42188 15.3492 7.42188H176.784C179.979 7.42188 182.578 10.021 182.578 13.2158C182.578 16.4105 179.979 19.0093 176.784 19.0093H160.826C154.897 19.0093 150.074 23.8324 150.074 29.761C150.074 31.5968 148.581 33.0904 146.745 33.0904H109.123C102.049 33.0904 96.0921 37.9647 94.4326 44.5312H82.5791C80.9196 37.9647 74.9632 33.0904 67.8886 33.0904H60.06C52.9851 33.0904 47.0272 37.9647 45.3681 44.5312H35.8254V43.7527C35.8254 32.4622 26.6397 23.2769 15.3492 23.2769ZM32.9201 75.1465H49.2482V143.984H32.9201V75.1465Z"
              fill="#434049"/>
        <path d="M147.828 148.437V164.765C147.828 166.815 149.489 168.476 151.539 168.476H167.867C169.916 168.476 171.578 166.815 171.578 164.765V148.437C171.578 146.388 169.916 144.726 167.867 144.726H151.539C149.489 144.726 147.828 146.388 147.828 148.437ZM155.25 152.148H164.156V161.054H155.25V152.148Z"
              fill="#434049"/>
        <path d="M135.21 144.726H118.882C116.833 144.726 115.171 146.388 115.171 148.437V164.765C115.171 166.815 116.833 168.476 118.882 168.476H135.21C137.26 168.476 138.921 166.815 138.921 164.765V148.437C138.921 146.388 137.26 144.726 135.21 144.726ZM131.5 161.054H122.593V152.148H131.5V161.054Z"
              fill="#434049"/>
        <path d="M142.5 126.172C143.476 126.172 144.433 125.775 145.124 125.085C145.814 124.394 146.211 123.437 146.211 122.461C146.211 121.485 145.814 120.528 145.124 119.837C144.433 119.147 143.476 118.75 142.5 118.75C141.524 118.75 140.567 119.147 139.876 119.837C139.186 120.528 138.789 121.485 138.789 122.461C138.789 123.437 139.186 124.394 139.876 125.085C140.567 125.775 141.524 126.172 142.5 126.172Z"
              fill="#434049"/>
    </g>
    <defs>
        <clipPath id="clip0">
            <rect width="190" height="190" fill="white"/>
        </clipPath>
    </defs>
</svg>
